<svg xmlns="http://www.w3.org/2000/svg" xmlns:xlink="http://www.w3.org/1999/xlink" width="468" height="145" version="1.1" viewBox="0 0 468 145"><title>AmbiguousForeignKeys</title><desc>Created with Sketch.</desc><defs><linearGradient id="linearGradient-1" x1="50%" x2="50%" y1="100%" y2="0%"><stop offset="0%" stop-color="#FFF" stop-opacity=".9"/><stop offset="100%" stop-color="#FFF"/></linearGradient><rect id="path-2" width="200" height="127" x="0" y="0" rx="10"/><filter id="filter-4" width="114.5%" height="122.8%" x="-7.2%" y="-9.1%" filterUnits="objectBoundingBox"><feMorphology in="SourceAlpha" operator="dilate" radius="1" result="shadowSpreadOuter1"/><feOffset dx="0" dy="3" in="shadowSpreadOuter1" result="shadowOffsetOuter1"/><feGaussianBlur in="shadowOffsetOuter1" result="shadowBlurOuter1" stdDeviation="4"/><feComposite in="shadowBlurOuter1" in2="SourceAlpha" operator="out" result="shadowBlurOuter1"/><feColorMatrix in="shadowBlurOuter1" type="matrix" values="0 0 0 0 0 0 0 0 0 0 0 0 0 0 0 0 0 0 0.1 0"/></filter><rect id="path-5" width="200" height="103" x="0" y="0" rx="10"/><filter id="filter-7" width="114.5%" height="128.2%" x="-7.2%" y="-11.2%" filterUnits="objectBoundingBox"><feMorphology in="SourceAlpha" operator="dilate" radius="1" result="shadowSpreadOuter1"/><feOffset dx="0" dy="3" in="shadowSpreadOuter1" result="shadowOffsetOuter1"/><feGaussianBlur in="shadowOffsetOuter1" result="shadowBlurOuter1" stdDeviation="4"/><feComposite in="shadowBlurOuter1" in2="SourceAlpha" operator="out" result="shadowBlurOuter1"/><feColorMatrix in="shadowBlurOuter1" type="matrix" values="0 0 0 0 0 0 0 0 0 0 0 0 0 0 0 0 0 0 0.1 0"/></filter><circle id="path-8" cx="3.5" cy="28.5" r="3.5"/><path id="path-9" d="M57.4068802,4.62378409 L50.4819187,0.815055312 C49.9979981,0.548898936 49.3899405,0.725431787 49.1237841,1.20935247 C49.0425794,1.35699745 49,1.52276825 49,1.69127122 L49,9.30872878 C49,9.86101353 49.4477153,10.3087288 50,10.3087288 C50.168503,10.3087288 50.3342738,10.2661494 50.4819187,10.1849447 L57.4068802,6.37621591 C57.8908008,6.11005953 58.0673337,5.50200193 57.8011773,5.01808125 C57.7097895,4.85192153 57.5730399,4.71517193 57.4068802,4.62378409 Z"/><circle id="path-10" cx="3.5" cy="47.5" r="3.5"/></defs><g id="Page-1" fill="none" fill-rule="evenodd" stroke="none" stroke-width="1"><g id="AmbiguousForeignKeys" transform="translate(9.000000, 6.000000)"><g id="Table"><mask id="mask-3" fill="#fff"><use xlink:href="#path-2"/></mask><g id="Rectangle"><use fill="#000" fill-opacity="1" filter="url(#filter-4)" xlink:href="#path-2"/><use fill="#005CC5" fill-rule="evenodd" xlink:href="#path-2"/><use fill="url(#linearGradient-1)" fill-rule="evenodd" xlink:href="#path-2"/><rect width="201" height="128" x="-.5" y="-.5" stroke="#000" stroke-opacity=".25" stroke-width="1" rx="10"/></g><g id="Field" mask="url(#mask-3)"><g transform="translate(0.000000, 31.000000)"><text id="name" fill="none" font-family="-apple-system,sans-serif" font-size="14" font-weight="500"><tspan x="10" y="17" fill="#000">id</tspan></text><text id="type" fill="none" font-family="-apple-system,sans-serif" font-size="14" font-weight="normal"><tspan x="110" y="17" fill="#000">integer</tspan></text><rect id="Rectangle" width="200" height="1" x="0" y="0" fill="#000" fill-opacity=".12" fill-rule="evenodd"/></g></g><g id="Field" mask="url(#mask-3)"><g transform="translate(0.000000, 55.000000)"><text id="name" fill="none" font-family="-apple-system,sans-serif" font-size="14" font-weight="500"><tspan x="10" y="17" fill="#000">authorId</tspan></text><text id="type" fill="none" font-family="-apple-system,sans-serif" font-size="14" font-weight="normal"><tspan x="110" y="17" fill="#000">integer</tspan></text><rect id="Rectangle" width="200" height="1" x="0" y="0" fill="#000" fill-opacity=".12" fill-rule="evenodd"/></g></g><g id="Field" mask="url(#mask-3)"><g transform="translate(0.000000, 79.000000)"><text id="name" fill="none" font-family="-apple-system,sans-serif" font-size="14" font-weight="500"><tspan x="10" y="17" fill="#000">translatorId</tspan></text><text id="type" fill="none" font-family="-apple-system,sans-serif" font-size="14" font-weight="normal"><tspan x="110" y="17" fill="#000">integer</tspan></text><rect id="Rectangle" width="200" height="1" x="0" y="0" fill="#000" fill-opacity=".12" fill-rule="evenodd"/></g></g><g id="Field" mask="url(#mask-3)"><g transform="translate(0.000000, 103.000000)"><text id="name" fill="none" font-family="-apple-system,sans-serif" font-size="14" font-weight="500"><tspan x="10" y="17" fill="#000">title</tspan></text><text id="type" fill="none" font-family="-apple-system,sans-serif" font-size="14" font-weight="normal"><tspan x="110" y="17" fill="#000">text</tspan></text><rect id="Rectangle" width="200" height="1" x="0" y="0" fill="#000" fill-opacity=".12" fill-rule="evenodd"/></g></g><text id="book" fill="#000" font-family="-apple-system,sans-serif" font-size="14" font-weight="500" mask="url(#mask-3)"><tspan x="82.944" y="21">book</tspan></text></g><g id="Table-Copy-2" transform="translate(250.000000, 0.000000)"><mask id="mask-6" fill="#fff"><use xlink:href="#path-5"/></mask><g id="Rectangle"><use fill="#000" fill-opacity="1" filter="url(#filter-7)" xlink:href="#path-5"/><use fill="#005CC5" fill-rule="evenodd" xlink:href="#path-5"/><use fill="url(#linearGradient-1)" fill-rule="evenodd" xlink:href="#path-5"/><rect width="201" height="104" x="-.5" y="-.5" stroke="#000" stroke-opacity=".25" stroke-width="1" rx="10"/></g><g id="Field" mask="url(#mask-6)"><g transform="translate(0.000000, 31.000000)"><text id="name" fill="none" font-family="-apple-system,sans-serif" font-size="14" font-weight="500"><tspan x="10" y="17" fill="#000">id</tspan></text><text id="type" fill="none" font-family="-apple-system,sans-serif" font-size="14" font-weight="normal"><tspan x="110" y="17" fill="#000">integer</tspan></text><rect id="Rectangle" width="200" height="1" x="0" y="0" fill="#000" fill-opacity=".12" fill-rule="evenodd"/></g></g><g id="Field" mask="url(#mask-6)"><g transform="translate(0.000000, 55.000000)"><text id="name" fill="none" font-family="-apple-system,sans-serif" font-size="14" font-weight="500"><tspan x="10" y="17" fill="#000">name</tspan></text><text id="type" fill="none" font-family="-apple-system,sans-serif" font-size="14" font-weight="normal"><tspan x="110" y="17" fill="#000">text</tspan></text><rect id="Rectangle" width="200" height="1" x="0" y="0" fill="#000" fill-opacity=".12" fill-rule="evenodd"/></g></g><g id="Field" mask="url(#mask-6)"><g transform="translate(0.000000, 79.000000)"><rect id="Rectangle" width="200" height="1" x="0" y="0" fill="#000" fill-opacity=".12" fill-rule="evenodd"/></g></g><text id="person" fill="#000" font-family="-apple-system,sans-serif" font-size="14" font-weight="500" mask="url(#mask-6)"><tspan x="76.211" y="21">person</tspan></text></g><g id="Group-3" transform="translate(197.000000, 39.000000)"><g id="Oval"><use fill="#000" fill-rule="evenodd" xlink:href="#path-8"/><circle cx="3.5" cy="28.5" r="4" stroke="#FFF" stroke-width="1"/></g><g id="Path-3"><use fill="#000" fill-rule="evenodd" xlink:href="#path-9"/><path stroke="#FFF" stroke-width="1" d="M57.6478395,4.18567614 C57.8970791,4.3227579 58.1022035,4.5278823 58.2392853,4.77712188 C58.6385198,5.5030029 58.3737206,6.4150893 57.6478395,6.81432386 L50.7228781,10.6230526 C50.5014107,10.7448598 50.2527545,10.8087288 50,10.8087288 C49.1715729,10.8087288 48.5,10.1371559 48.5,9.30872878 L48.5,1.69127122 C48.5,1.43851677 48.563869,1.18986057 48.6856761,0.968393096 C49.0849107,0.242512071 49.9969971,-0.0222872062 50.7228781,0.376947358 L57.6478395,4.18567614 Z"/></g><path id="Path-2" stroke="#000" stroke-linecap="round" stroke-linejoin="round" stroke-width="2" d="M2.5,28.5 C2.5,28.5 2.5,28.5 16.5,28.5 C30.5,28.5 27.5,5.5 40.5,5.5 C49.1666667,5.5 53.5,5.5 53.5,5.5"/></g><g id="Group-3" transform="translate(197.000000, 44.000000)"><g id="Oval"><use fill="#000" fill-rule="evenodd" xlink:href="#path-10"/><circle cx="3.5" cy="47.5" r="4" stroke="#FFF" stroke-width="1"/></g><path id="Path-2" stroke="#000" stroke-linecap="round" stroke-linejoin="round" stroke-width="2" d="M2.5,47.5 C2.5,47.5 2.5,47.5 16.5,47.5 C30.5,47.5 27.5,0.5 40.5,0.5 C49.1666667,0.5 53.5,0.5 53.5,0.5"/></g></g></g></svg>