<svg xmlns="http://www.w3.org/2000/svg" xmlns:xlink="http://www.w3.org/1999/xlink" width="468" height="121" version="1.1" viewBox="0 0 468 121"><title>BelongsToSchema</title><desc>Created with Sketch.</desc><defs><linearGradient id="linearGradient-1" x1="50%" x2="50%" y1="100%" y2="0%"><stop offset="0%" stop-color="#FFF" stop-opacity=".9"/><stop offset="100%" stop-color="#FFF"/></linearGradient><rect id="path-2" width="200" height="103" x="0" y="0" rx="10"/><filter id="filter-4" width="114.5%" height="128.2%" x="-7.2%" y="-11.2%" filterUnits="objectBoundingBox"><feMorphology in="SourceAlpha" operator="dilate" radius="1" result="shadowSpreadOuter1"/><feOffset dx="0" dy="3" in="shadowSpreadOuter1" result="shadowOffsetOuter1"/><feGaussianBlur in="shadowOffsetOuter1" result="shadowBlurOuter1" stdDeviation="4"/><feComposite in="shadowBlurOuter1" in2="SourceAlpha" operator="out" result="shadowBlurOuter1"/><feColorMatrix in="shadowBlurOuter1" type="matrix" values="0 0 0 0 0 0 0 0 0 0 0 0 0 0 0 0 0 0 0.1 0"/></filter><rect id="path-5" width="200" height="103" x="0" y="0" rx="10"/><filter id="filter-7" width="114.5%" height="128.2%" x="-7.2%" y="-11.2%" filterUnits="objectBoundingBox"><feMorphology in="SourceAlpha" operator="dilate" radius="1" result="shadowSpreadOuter1"/><feOffset dx="0" dy="3" in="shadowSpreadOuter1" result="shadowOffsetOuter1"/><feGaussianBlur in="shadowOffsetOuter1" result="shadowBlurOuter1" stdDeviation="4"/><feComposite in="shadowBlurOuter1" in2="SourceAlpha" operator="out" result="shadowBlurOuter1"/><feColorMatrix in="shadowBlurOuter1" type="matrix" values="0 0 0 0 0 0 0 0 0 0 0 0 0 0 0 0 0 0 0.1 0"/></filter><circle id="path-8" cx="200.5" cy="67.5" r="3.5"/><path id="path-9" d="M254.40688,43.6237841 L247.481919,39.8150553 C246.997998,39.5488989 246.38994,39.7254318 246.123784,40.2093525 C246.042579,40.3569975 246,40.5227683 246,40.6912712 L246,48.3087288 C246,48.8610135 246.447715,49.3087288 247,49.3087288 C247.168503,49.3087288 247.334274,49.2661494 247.481919,49.1849447 L254.40688,45.3762159 C254.890801,45.1100595 255.067334,44.5020019 254.801177,44.0180813 C254.709789,43.8519215 254.57304,43.7151719 254.40688,43.6237841 Z"/></defs><g id="Page-1" fill="none" fill-rule="evenodd" stroke="none" stroke-width="1"><g id="BelongsToSchema" transform="translate(9.000000, 6.000000)"><g id="Table"><mask id="mask-3" fill="#fff"><use xlink:href="#path-2"/></mask><g id="Rectangle"><use fill="#000" fill-opacity="1" filter="url(#filter-4)" xlink:href="#path-2"/><use fill="#005CC5" fill-rule="evenodd" xlink:href="#path-2"/><use fill="url(#linearGradient-1)" fill-rule="evenodd" xlink:href="#path-2"/><rect width="201" height="104" x="-.5" y="-.5" stroke="#000" stroke-opacity=".25" stroke-width="1" rx="10"/></g><g id="Field" mask="url(#mask-3)"><g transform="translate(0.000000, 31.000000)"><text id="name" fill="none" font-family="-apple-system,sans-serif" font-size="14" font-weight="500"><tspan x="10" y="17" fill="#000">id</tspan></text><text id="type" fill="none" font-family="-apple-system,sans-serif" font-size="14" font-weight="normal"><tspan x="110" y="17" fill="#000">integer</tspan></text><rect id="Rectangle" width="200" height="1" x="0" y="0" fill="#000" fill-opacity=".12" fill-rule="evenodd"/></g></g><g id="Field" mask="url(#mask-3)"><g transform="translate(0.000000, 55.000000)"><text id="name" fill="none" font-family="-apple-system,sans-serif" font-size="14" font-weight="500"><tspan x="10" y="17" fill="#000">authorId</tspan></text><text id="type" fill="none" font-family="-apple-system,sans-serif" font-size="14" font-weight="normal"><tspan x="110" y="17" fill="#000">integer</tspan></text><rect id="Rectangle" width="200" height="1" x="0" y="0" fill="#000" fill-opacity=".12" fill-rule="evenodd"/></g></g><g id="Field" mask="url(#mask-3)"><g transform="translate(0.000000, 79.000000)"><text id="name" fill="none" font-family="-apple-system,sans-serif" font-size="14" font-weight="500"><tspan x="10" y="17" fill="#000">title</tspan></text><text id="type" fill="none" font-family="-apple-system,sans-serif" font-size="14" font-weight="normal"><tspan x="110" y="17" fill="#000">text</tspan></text><rect id="Rectangle" width="200" height="1" x="0" y="0" fill="#000" fill-opacity=".12" fill-rule="evenodd"/></g></g><text id="book" fill="#000" font-family="-apple-system,sans-serif" font-size="14" font-weight="500" mask="url(#mask-3)"><tspan x="82.944" y="21">book</tspan></text></g><g id="Table-Copy-2" transform="translate(250.000000, 0.000000)"><mask id="mask-6" fill="#fff"><use xlink:href="#path-5"/></mask><g id="Rectangle"><use fill="#000" fill-opacity="1" filter="url(#filter-7)" xlink:href="#path-5"/><use fill="#005CC5" fill-rule="evenodd" xlink:href="#path-5"/><use fill="url(#linearGradient-1)" fill-rule="evenodd" xlink:href="#path-5"/><rect width="201" height="104" x="-.5" y="-.5" stroke="#000" stroke-opacity=".25" stroke-width="1" rx="10"/></g><g id="Field" mask="url(#mask-6)"><g transform="translate(0.000000, 31.000000)"><text id="name" fill="none" font-family="-apple-system,sans-serif" font-size="14" font-weight="500"><tspan x="10" y="17" fill="#000">id</tspan></text><text id="type" fill="none" font-family="-apple-system,sans-serif" font-size="14" font-weight="normal"><tspan x="110" y="17" fill="#000">integer</tspan></text><rect id="Rectangle" width="200" height="1" x="0" y="0" fill="#000" fill-opacity=".12" fill-rule="evenodd"/></g></g><g id="Field" mask="url(#mask-6)"><g transform="translate(0.000000, 55.000000)"><text id="name" fill="none" font-family="-apple-system,sans-serif" font-size="14" font-weight="500"><tspan x="10" y="17" fill="#000">name</tspan></text><text id="type" fill="none" font-family="-apple-system,sans-serif" font-size="14" font-weight="normal"><tspan x="110" y="17" fill="#000">text</tspan></text><rect id="Rectangle" width="200" height="1" x="0" y="0" fill="#000" fill-opacity=".12" fill-rule="evenodd"/></g></g><g id="Field" mask="url(#mask-6)"><g transform="translate(0.000000, 79.000000)"><rect id="Rectangle" width="200" height="1" x="0" y="0" fill="#000" fill-opacity=".12" fill-rule="evenodd"/></g></g><text id="author" fill="#000" font-family="-apple-system,sans-serif" font-size="14" font-weight="500" mask="url(#mask-6)"><tspan x="77.387" y="21">author</tspan></text></g><g id="Oval"><use fill="#000" fill-rule="evenodd" xlink:href="#path-8"/><circle cx="200.5" cy="67.5" r="4" stroke="#FFF" stroke-width="1"/></g><g id="Path-3"><use fill="#000" fill-rule="evenodd" xlink:href="#path-9"/><path stroke="#FFF" stroke-width="1" d="M254.64784,43.1856761 C254.897079,43.3227579 255.102204,43.5278823 255.239285,43.7771219 C255.63852,44.5030029 255.373721,45.4150893 254.64784,45.8143239 L247.722878,49.6230526 C247.501411,49.7448598 247.252754,49.8087288 247,49.8087288 C246.171573,49.8087288 245.5,49.1371559 245.5,48.3087288 L245.5,40.6912712 C245.5,40.4385168 245.563869,40.1898606 245.685676,39.9683931 C246.084911,39.2425121 246.996997,38.9777128 247.722878,39.3769474 L254.64784,43.1856761 Z"/></g><path id="Path-2" stroke="#000" stroke-linecap="round" stroke-linejoin="round" stroke-width="2" d="M199.5,67.5 C199.5,67.5 199.5,67.5 213.5,67.5 C227.5,67.5 224.5,44.5 237.5,44.5 C246.166667,44.5 250.5,44.5 250.5,44.5"/></g></g></svg>