<svg xmlns="http://www.w3.org/2000/svg" xmlns:xlink="http://www.w3.org/1999/xlink" width="233" height="121" version="1.1" viewBox="0 0 233 121"><title>RecursiveSchema</title><desc>Created with Sketch.</desc><defs><linearGradient id="linearGradient-1" x1="50%" x2="50%" y1="100%" y2="0%"><stop offset="0%" stop-color="#FFF" stop-opacity=".9"/><stop offset="100%" stop-color="#FFF"/></linearGradient><rect id="path-2" width="200" height="103" x="0" y="0" rx="10"/><filter id="filter-4" width="114.5%" height="128.2%" x="-7.2%" y="-11.2%" filterUnits="objectBoundingBox"><feMorphology in="SourceAlpha" operator="dilate" radius="1" result="shadowSpreadOuter1"/><feOffset dx="0" dy="3" in="shadowSpreadOuter1" result="shadowOffsetOuter1"/><feGaussianBlur in="shadowOffsetOuter1" result="shadowBlurOuter1" stdDeviation="4"/><feComposite in="shadowBlurOuter1" in2="SourceAlpha" operator="out" result="shadowBlurOuter1"/><feColorMatrix in="shadowBlurOuter1" type="matrix" values="0 0 0 0 0 0 0 0 0 0 0 0 0 0 0 0 0 0 0.1 0"/></filter><circle id="path-5" cx="22.5" cy="28.5" r="3.5"/><path id="path-6" d="M27.4068802,4.62378409 L20.4819187,0.815055312 C19.9979981,0.548898936 19.3899405,0.725431787 19.1237841,1.20935247 C19.0425794,1.35699745 19,1.52276825 19,1.69127122 L19,9.30872878 C19,9.86101353 19.4477153,10.3087288 20,10.3087288 C20.168503,10.3087288 20.3342738,10.2661494 20.4819187,10.1849447 L27.4068802,6.37621591 C27.8908008,6.11005953 28.0673337,5.50200193 27.8011773,5.01808125 C27.7097895,4.85192153 27.5730399,4.71517193 27.4068802,4.62378409 Z"/></defs><g id="Page-1" fill="none" fill-rule="evenodd" stroke="none" stroke-width="1"><g id="RecursiveSchema" transform="translate(9.000000, 6.000000)"><g id="Table-Copy-2"><mask id="mask-3" fill="#fff"><use xlink:href="#path-2"/></mask><g id="Rectangle"><use fill="#000" fill-opacity="1" filter="url(#filter-4)" xlink:href="#path-2"/><use fill="#005CC5" fill-rule="evenodd" xlink:href="#path-2"/><use fill="url(#linearGradient-1)" fill-rule="evenodd" xlink:href="#path-2"/><rect width="201" height="104" x="-.5" y="-.5" stroke="#000" stroke-opacity=".25" stroke-width="1" rx="10"/></g><g id="Field" mask="url(#mask-3)"><g transform="translate(0.000000, 31.000000)"><text id="name" fill="none" font-family="-apple-system,sans-serif" font-size="14" font-weight="500"><tspan x="10" y="17" fill="#000">id</tspan></text><text id="type" fill="none" font-family="-apple-system,sans-serif" font-size="14" font-weight="normal"><tspan x="110" y="17" fill="#000">integer</tspan></text><rect id="Rectangle" width="200" height="1" x="0" y="0" fill="#000" fill-opacity=".12" fill-rule="evenodd"/></g></g><g id="Field" mask="url(#mask-3)"><g transform="translate(0.000000, 55.000000)"><text id="name" fill="none" font-family="-apple-system,sans-serif" font-size="14" font-weight="500"><tspan x="10" y="17" fill="#000">managerId</tspan></text><text id="type" fill="none" font-family="-apple-system,sans-serif" font-size="14" font-weight="normal"><tspan x="110" y="17" fill="#000">integer</tspan></text><rect id="Rectangle" width="200" height="1" x="0" y="0" fill="#000" fill-opacity=".12" fill-rule="evenodd"/></g></g><g id="Field" mask="url(#mask-3)"><g transform="translate(0.000000, 79.000000)"><text id="name" fill="none" font-family="-apple-system,sans-serif" font-size="14" font-weight="500"><tspan x="10" y="17" fill="#000">name</tspan></text><text id="type" fill="none" font-family="-apple-system,sans-serif" font-size="14" font-weight="normal"><tspan x="110" y="17" fill="#000">text</tspan></text><rect id="Rectangle" width="200" height="1" x="0" y="0" fill="#000" fill-opacity=".12" fill-rule="evenodd"/></g></g><g id="Field" mask="url(#mask-3)"><g transform="translate(0.000000, 79.000000)"><rect id="Rectangle" width="200" height="1" x="0" y="0" fill="#000" fill-opacity=".12" fill-rule="evenodd"/></g></g><text id="employee" fill="#000" font-family="-apple-system,sans-serif" font-size="14" font-weight="500" mask="url(#mask-3)"><tspan x="66.873" y="21">employee</tspan></text></g><g id="Group" transform="translate(209.000000, 55.000000) scale(-1, 1) translate(-209.000000, -55.000000) translate(195.000000, 39.000000)"><g id="Oval"><use fill="#000" fill-rule="evenodd" xlink:href="#path-5"/><circle cx="22.5" cy="28.5" r="4" stroke="#FFF" stroke-width="1"/></g><g id="Path-3"><use fill="#000" fill-rule="evenodd" xlink:href="#path-6"/><path stroke="#FFF" stroke-width="1" d="M27.6478395,4.18567614 C27.8970791,4.3227579 28.1022035,4.5278823 28.2392853,4.77712188 C28.6385198,5.5030029 28.3737206,6.4150893 27.6478395,6.81432386 L20.7228781,10.6230526 C20.5014107,10.7448598 20.2527545,10.8087288 20,10.8087288 C19.1715729,10.8087288 18.5,10.1371559 18.5,9.30872878 L18.5,1.69127122 C18.5,1.43851677 18.563869,1.18986057 18.6856761,0.968393096 C19.0849107,0.242512071 19.9969971,-0.0222872062 20.7228781,0.376947358 L27.6478395,4.18567614 Z"/></g><path id="Path-2" stroke="#000" stroke-linecap="round" stroke-linejoin="round" stroke-width="2" d="M23.5,28.5 C23.5,28.5 19.1666667,28.5 10.5,28.5 C-2.5,28.5 -2.5,5.5 10.5,5.5 C19.1666667,5.5 23.5,5.5 23.5,5.5"/></g></g></g></svg>